<svg width="75" height="75" viewBox="0 0 75 75" fill="none" xmlns="http://www.w3.org/2000/svg">
<rect width="75" height="75" fill="white"/>
<path d="M3.55443 43.0931C2.3116 41.3325 0.787837 38.1266 3.55443 35.9469C8.68109 31.9077 9.30249 41.8503 16.2934 40.6075C19.8609 39.9733 20.3326 36.1022 22.6629 34.5487" stroke="black" stroke-width="0.4"/>
<path d="M22.6627 34.7041L24.3715 36.1023C22.1966 37.8112 19.5556 43.0932 15.2057 43.0932C9.14696 43.0932 8.05949 36.7237 6.03988 36.7237C4.48635 36.7237 2.15606 37.5005 3.39888 43.0932" stroke="black" stroke-width="0.4"/>
<path d="M22.5076 34.238C26.7021 30.6649 23.129 18.0813 38.6643 15.285C48.2962 13.5513 48.7622 20.2562 52.9568 21.1884C54.1996 21.4646 51.5586 19.6349 54.3549 18.0813C57.1513 16.5278 56.7898 18.7026 56.7898 19.4794C56.7898 20.1008 57.462 21.8097 58.3434 19.6348C59.0989 17.7706 60.103 21.033 60.4137 21.1884C60.9695 21.4664 62.2779 21.499 62.8993 22.5865C63.5208 23.674 68.4921 26.1597 68.1813 27.2472C67.8706 28.3346 67.5599 28.956 67.0939 28.8006C66.6278 28.6453 66.7832 30.1989 65.385 30.6649C63.9868 31.131 65.5403 29.4221 60.4137 29.5774C55.287 29.7328 62.5886 29.5774 63.2101 30.6649C63.8315 31.7524 57.3066 31.131 57.7727 30.6649C58.2388 30.1989 56.2192 30.8203 55.7531 31.597C55.287 32.3738 59.4816 30.7887 59.4816 34.238C59.4816 34.704 59.3262 35.1702 58.8602 35.6362C58.5495 35.9469 58.0834 37.9665 56.3745 37.345C54.6656 36.7236 54.821 38.1218 54.1996 36.879C53.5782 35.6362 55.1317 35.3255 55.4424 35.4809C55.7531 35.6362 53.1121 35.0147 52.646 35.7915C52.2732 36.4129 53.3192 38.4843 54.1996 39.52" stroke="black" stroke-width="0.4"/>
<path d="M54.1994 39.3646C54.302 39.6744 54.595 40.5779 53.7333 41.0735C52.8717 41.5691 51.2477 41.6879 51.2477 40.9135C48.8371 43.5466 43.6031 48.8412 43.4801 48.8412C43.3262 48.8412 44.5675 48.9965 44.5675 49.897C44.5675 50.2393 43.2885 48.9345 42.8586 49.3072C42.8586 49.3072 44.0014 49.3072 44.2568 50.084C44.3536 50.3782 44.3106 50.8263 44.1567 50.8263C44.0028 50.8263 43.7863 50.0519 43.3247 50.0519M43.3247 50.0519C42.8631 50.0519 42.3103 50.3616 42.0026 50.0519C41.7564 49.8041 42.8118 50.0002 43.3247 50.0519ZM43.3247 50.0519C43.9402 50.5682 44.1567 50.847 44.1567 51.6007C44.1567 51.7556 44.1567 52.3752 43.849 52.3752C43.849 52.0654 43.7874 51.4768 43.5412 51.6007C43.2335 51.7556 42.3103 51.6007 42.3103 51.7556C42.3103 51.9105 42.7033 55.0553 39.5963 55.2106C37.7899 55.3009 36.1775 54.4597 36.1775 52.3752" stroke="black" stroke-width="0.4"/>
<path d="M36.9016 44.7811C37.2269 44.7449 37.3461 44.7176 37.6445 44.5518C37.9011 44.4092 38.1862 44.7806 38.3875 44.5793C38.7232 44.2436 38.9962 43.9507 39.1258 43.497C39.2093 43.2048 39.2955 42.6593 39.2955 42.3459C39.2955 42.0498 39.378 41.7819 39.378 41.4792C39.378 40.8108 39.4606 40.1376 39.4606 39.4568C39.4606 39.0381 39.1398 38.1042 39.4606 37.7646C39.8943 37.3054 40.3906 36.8909 40.7813 36.4026C41.3533 35.6875 42.4846 35.3715 43.3036 34.9993C43.5479 34.8882 44.0191 34.7104 44.2895 34.7104C44.4514 34.7104 44.8878 34.6332 44.9912 34.504C45.0948 34.3745 45.754 34.1917 45.9451 34.1371C46.143 34.0806 46.3527 33.8849 46.5596 33.8849C46.997 33.8849 47.666 34.0676 48.0087 34.3481C48.4687 34.7244 49.0823 34.8227 49.6138 35.0589C49.9695 35.217 50.4313 35.5358 50.8107 35.5358C51.18 35.5358 52.2688 35.7164 52.5672 35.5175C52.8836 35.3065 53.6712 35.2882 54.0301 35.2882C54.2624 35.2882 54.4961 35.3707 54.6904 35.3707C54.8873 35.3707 55.3347 35.4281 55.1444 35.6184" stroke="black" stroke-width="0.4" stroke-linecap="round"/>
<path d="M54.3193 32.9771C54.3193 33.5279 55.2883 33.5453 55.6814 33.72C56.1886 33.9454 56.7186 34.2153 57.291 34.2153C57.5243 34.2153 57.6329 34.3135 57.8276 34.4216C58.067 34.5546 58.0398 34.8804 58.2403 35.0407C58.4494 35.208 58.7453 36.2789 58.2816 36.2789" stroke="black" stroke-width="0.4" stroke-linecap="round"/>
<path d="M56.6843 35.1959C57.2519 35.1959 57.6164 35.9493 57.6164 36.7495" stroke="black" stroke-width="0.4" stroke-linecap="round"/>
<path d="M57.8686 34.3803C58.2473 34.333 57.8949 33.635 57.7448 33.5182C57.5523 33.3685 57.1604 33.2828 56.9193 33.2293C56.4121 33.1166 55.8333 32.9771 55.3096 32.9771C54.9962 32.9771 54.6762 33.0596 54.4016 33.0596" stroke="black" stroke-width="0.4" stroke-linecap="round"/>
<path d="M58.5291 22.576C59.1939 22.576 59.9558 22.6036 60.5102 22.9246C60.8662 23.1307 61.1661 23.3753 61.4182 23.6904C61.5896 23.9047 61.8057 24.3011 62.0786 24.3921" stroke="black" stroke-width="0.4" stroke-linecap="round"/>
<path d="M61.4183 23.6492C61.4183 23.2892 60.3142 23.4062 60.0975 23.5025C59.9499 23.5681 59.6794 23.6404 59.5197 23.6492C59.2342 23.6651 59.7457 23.6428 59.8499 23.7731C60.0421 24.0133 60.0203 24.3642 60.391 24.4701C60.9171 24.6204 61.3733 24.6398 61.9135 24.6398" stroke="black" stroke-width="0.4" stroke-linecap="round"/>
<path d="M60.5926 23.7317C60.045 23.9894 60.7577 24.5354 60.7577 23.8968" stroke="black" stroke-width="0.4" stroke-linecap="round"/>
<path d="M68.022 26.5382C68.7894 26.5382 69.6934 25.7025 70.3333 25.3826" stroke="black" stroke-width="0.4" stroke-linecap="round"/>
<path d="M68.3521 27.1161C68.3782 26.9071 69.6477 26.5166 69.9571 26.4603C70.2737 26.4028 70.5809 26.3457 70.911 26.2906" stroke="black" stroke-width="0.4" stroke-linecap="round"/>
<path d="M64.3071 27.1161C64.7015 27.1161 65.2642 26.9732 65.4811 27.3637C65.6301 27.6319 65.869 28.2758 66.1598 28.3589C66.5635 28.4742 66.7074 28.9951 67.233 28.845C67.5537 28.7533 67.6915 28.0534 67.6915 27.7764" stroke="black" stroke-width="0.4" stroke-linecap="round"/>
<path d="M66.7837 27.7765C66.7939 27.9401 66.8977 28.0398 67.0313 28.1067" stroke="black" stroke-width="0.4" stroke-linecap="round"/>
<path d="M66.2881 29.2623C66.5484 29.5552 66.7526 29.892 67.031 30.1703C67.2844 30.4238 67.3706 30.7576 67.6088 30.9958" stroke="black" stroke-width="0.4" stroke-linecap="round"/>
<path d="M66.2883 30.0878C66.0403 30.3667 66.2705 31.1163 66.4167 31.4085C66.7328 32.0409 66.8131 32.7884 67.1137 33.3896" stroke="black" stroke-width="0.4" stroke-linecap="round"/>
<path d="M65.0503 28.9323C64.7633 28.9681 64.7542 31.997 64.9494 32.5827C65.1405 33.1559 65.2979 33.7614 65.2979 34.3803" stroke="black" stroke-width="0.4" stroke-linecap="round"/>
<path d="M64.3898 28.767C64.2027 28.9775 64.2786 29.2018 64.2064 29.4457C64.07 29.9059 63.9847 30.3822 63.8166 30.8306C63.3923 31.9621 63.1516 33.3367 63.1516 34.5452" stroke="black" stroke-width="0.4" stroke-linecap="round"/>
<path d="M63.812 28.4369C62.6096 29.7807 62.634 31.7484 61.7483 33.2246" stroke="black" stroke-width="0.4" stroke-linecap="round"/>
<path d="M54.4018 20.5949C54.0568 20.6332 54.1412 21.1749 54.1541 21.4204C54.1689 21.7011 54.4247 21.8742 54.4797 22.122C54.5119 22.2666 54.4843 22.4464 54.4843 22.5944C54.4843 23.0963 54.3928 23.2364 54.9429 23.2364C55.542 23.2364 55.981 21.9622 56.0481 21.4249C56.0744 21.215 56.0527 20.99 56.0527 20.7783C56.0527 20.2881 56.1879 19.9044 56.1811 19.4026C56.1778 19.1559 55.7461 18.6297 55.4749 18.6138C54.7446 18.5708 54.6996 19.9545 54.9154 20.494C55.0119 20.7353 55.2716 21.0138 55.3923 21.2553" stroke="black" stroke-width="0.4" stroke-linecap="round"/>
<path d="M24.1897 36.2788C24.3263 36.3129 24.2479 36.5588 24.3961 36.6411C24.4763 36.6857 24.7213 36.4512 24.8088 36.4026C25.1674 36.2034 25.6345 36.1427 26.0241 36.0128C26.5278 35.8449 27.5754 35.83 28.0694 36.0495C28.4537 36.2203 28.8435 36.4727 29.1838 36.7374C29.4652 36.9563 29.5803 37.1841 29.8029 37.4345C30.1792 37.8578 30.6654 38.1319 31.0824 38.5488C31.2739 38.7404 31.3856 39.0567 31.6189 39.1863C32.1738 39.4946 32.7397 40.051 33.2056 40.4703C33.7228 40.9358 34.0789 41.5121 34.4255 42.0754C34.6655 42.4654 34.7937 42.9205 35.1271 43.254C35.4647 43.5916 35.799 43.9388 36.0948 44.2675C36.3636 44.5662 37.2387 45.339 37.4797 44.616" stroke="black" stroke-width="0.4" stroke-linecap="round"/>
<path d="M38.7178 44.4509C38.7178 45.1916 38.9883 45.8459 39.3369 46.4733C39.6227 46.9878 39.8156 47.6131 40.222 48.0646C40.6234 48.5107 41.3295 48.5395 41.8958 48.6654C42.4173 48.7813 43.0786 48.9085 43.588 48.9085" stroke="black" stroke-width="0.4" stroke-linecap="round"/>
<path d="M40.0625 37.345C42.4964 36.9307 48.0476 36.1022 50.7819 36.1022" stroke="black" stroke-width="0.4"/>
<path d="M50.6646 35.5129C50.6646 35.6345 50.7234 35.7533 50.7425 35.8731C50.7496 35.9176 50.7537 35.9573 50.7537 36.0031" stroke="black" stroke-width="0.4" stroke-linecap="round"/>
<path d="M39.5964 39.0539C51.5586 37.1896 55.9085 35.17 41.7714 48.5304" stroke="black" stroke-width="0.4"/>
<path d="M53.2674 41.229C53.0602 41.2808 52.677 41.5708 52.8013 42.3165C52.9567 43.2486 55.9084 49.3073 56.2191 50.0841C56.5298 50.8609 56.9959 51.3269 57.6173 51.1716C58.2387 51.0162 57.928 50.3948 57.6173 49.7734C57.3066 49.152 54.3548 40.4522 53.2674 41.229ZM53.2674 41.229C56.9959 40.0379 64.5795 40.3242 66.0063 48.3753C68.1813 60.6479 50.005 63.5997 47.6747 51.1716C46.5132 44.9773 51.7138 41.8504 53.2674 41.229Z" stroke="black" stroke-width="0.4"/>
<path d="M54.5103 42.3163C62.7441 41.2289 63.8315 45.8895 64.7636 48.2198C65.6958 50.5501 64.6083 57.3856 57.4621 57.8516C50.3158 58.3177 49.073 51.6375 48.9176 49.9286C48.7623 48.2198 49.6944 44.6466 52.8015 42.9377" stroke="black" stroke-width="0.4"/>
<path d="M32.6042 41.41C26.5455 37.9923 20.2523 41.1245 18.1565 45.9153C16.0606 50.7062 17.3073 58.4653 24.992 60.5185C32.6767 62.5717 36.6434 57.5668 37.7309 54.7704" stroke="black" stroke-width="0.4"/>
<path d="M34 42.3329C34.0161 42.4615 34.4735 42.6488 34.5943 42.7696C34.771 42.9464 34.9508 43.1868 35.1563 43.3281C35.602 43.6345 35.6394 44.0599 35.9475 44.445C36.0709 44.5993 36.1782 44.8022 36.2697 44.9749C36.4029 45.2266 36.7516 45.439 36.8317 45.7195C36.9046 45.9746 37.1258 46.2683 37.1575 46.5214C37.169 46.6137 37.2665 46.7796 37.3508 46.8292C37.5639 46.9546 37.5713 47.0732 37.698 47.3125C37.9344 47.759 38.0596 48.3216 38.0596 48.8411C38.0596 49.0491 38.1145 49.4327 38.1097 49.4211C37.9971 49.1475 37.9952 48.9129 37.9952 48.6156C37.9952 47.894 37.7169 47.2821 37.4009 46.6502C37.1403 46.1291 37.2219 45.3644 37.2219 44.7815" stroke="black" stroke-width="0.4" stroke-linecap="round"/>
<path d="M37.9954 47.8101C38.2612 48.1054 38.3646 48.4374 38.6541 48.6979C38.914 48.9318 39.2695 49.0841 39.5276 49.3709C39.8623 49.7429 40.1275 50.2175 40.444 50.6131C40.6892 50.9196 41.0783 51.2454 41.4464 51.3506C41.8048 51.453 42.0005 51.1608 42.3127 51.1608C42.6403 51.1608 42.7906 51.0401 43.1146 51.2253C43.2258 51.2888 43.6076 51.5353 43.537 51.6763" stroke="black" stroke-width="0.4" stroke-linecap="round"/>
<path d="M39.6705 49.7431C39.4233 49.7431 38.7675 49.3701 38.525 49.5641C38.3827 49.6779 38.1129 49.6315 37.945 49.7574C37.8369 49.8386 37.6854 49.9852 37.5441 50.0009C36.8784 50.0748 36.614 50.8258 36.3197 51.304C36.151 51.5781 36.1909 52.0665 36.1909 52.3851C36.1909 52.5569 36.1909 52.7288 36.1909 52.9006C36.1909 53.0897 36.3006 53.1985 36.3197 53.3517C36.3362 53.4832 36.4335 53.6151 36.4987 53.7383C36.5623 53.8584 36.6366 54.0816 36.7207 54.175C36.9708 54.453 37.1619 54.67 37.5441 54.8337" stroke="black" stroke-width="0.4" stroke-linecap="round"/>
<path d="M28.5869 49.8078C28.8554 49.8078 29.1239 49.8078 29.3924 49.8078C29.7944 49.8078 30.3219 49.7061 30.6991 49.8221C31.567 50.0892 32.4228 49.9367 33.3124 49.9367C34.0956 49.9367 34.8613 49.91 35.6465 49.8687C36.2335 49.8378 36.7781 49.7434 37.3648 49.7434C37.6419 49.7434 37.8598 49.6443 38.1273 49.6109C38.5146 49.5625 38.8888 49.55 39.2837 49.55" stroke="black" stroke-width="0.4" stroke-linecap="round"/>
<path d="M27.1051 50.9032C26.7116 50.88 26.7498 50.2414 27.0407 50.0798C27.3068 49.932 27.6538 49.8699 27.8462 50.1264C28.2843 50.7105 27.1696 51.0634 27.1696 50.6454" stroke="black" stroke-width="0.4" stroke-linecap="round"/>
<path d="M33.3822 40.452C32.2947 42.0056 29.4197 48.2201 26.8573 49.6179C25.1485 50.55 27.0127 51.9481 28.5663 51.3267C28.9823 51.1603 33.1233 52.1035 36.1786 52.4142" stroke="black" stroke-width="0.4"/>
<path d="M36.3341 51.4822C34.7806 51.3268 27.7077 50.4767 28.4111 49.7733C29.4986 48.6858 33.5377 43.2485 34.1592 41.6949" stroke="black" stroke-width="0.4"/>
<path d="M39.5399 52.0116C39.4846 51.9624 39.4317 51.9948 39.374 51.9628C39.3119 51.9283 39.247 51.9335 39.1788 51.9335C39.0667 51.9335 39.0377 52.0137 38.9543 52.0658C38.8655 52.1213 38.7628 52.2731 38.7406 52.3727C38.7019 52.5471 38.7622 52.6504 38.8371 52.7816C38.9309 52.9458 39.2056 52.9681 39.3685 52.9681C39.5041 52.9681 39.4814 52.8432 39.5703 52.7924C39.6506 52.7465 39.6961 52.592 39.6961 52.4996C39.6961 52.4606 39.7442 52.389 39.7113 52.3478C39.6786 52.307 39.652 52.2534 39.6136 52.2111C39.5795 52.1736 39.5688 52.0944 39.5204 52.0702" stroke="black" stroke-width="0.4" stroke-linecap="round"/>
<path d="M39.2671 51.836C39.315 51.836 39.3552 51.833 39.4027 51.8208C39.5353 51.7865 39.6861 51.7609 39.8093 51.6993C39.8347 51.6866 39.8524 51.6659 39.882 51.6613C39.9897 51.6448 40.0703 51.5558 40.1748 51.5236C40.2164 51.5108 40.2276 51.4753 40.267 51.4607C40.3463 51.4314 40.4311 51.4027 40.5078 51.3674C40.6878 51.2847 40.9002 51.1527 41.1021 51.1527" stroke="black" stroke-width="0.4" stroke-linecap="round"/>
<path d="M39.4426 53.0463C39.5418 53.0463 39.6369 52.989 39.7246 52.9443C39.8605 52.8751 39.9253 52.7761 40.05 52.7025C40.3092 52.5493 40.5367 52.3289 40.7983 52.1862C40.8628 52.1511 40.9223 52.1132 40.975 52.0604C41.0523 51.9832 41.2019 51.9378 41.2971 51.8902C41.4399 51.8188 41.5497 51.7287 41.6485 51.6017" stroke="black" stroke-width="0.4" stroke-linecap="round"/>
<path d="M41.6484 51.3676C41.6835 51.4377 41.7083 51.5409 41.6853 51.6213C41.6672 51.6846 41.605 51.7063 41.7178 51.7276C41.7879 51.7409 41.8204 51.7189 41.8827 51.7189C42.0809 51.7189 42.2697 51.6837 42.4683 51.6604" stroke="black" stroke-width="0.4" stroke-linecap="round"/>
<path d="M27.7893 51.4823C27.9584 51.5114 28.1808 51.5488 28.3267 51.6408C28.408 51.6921 28.5105 51.7161 28.5978 51.7593C28.9825 51.9495 29.362 52.1465 29.7571 52.3179C30.3436 52.5724 30.961 52.7163 31.5839 52.8695C32.49 53.0923 33.3158 53.5261 34.1944 53.8204C34.3053 53.8576 34.4025 53.9155 34.5095 53.9601C34.6857 54.0335 34.8733 54.0826 35.056 54.139C35.6314 54.3166 36.221 54.4506 36.7974 54.6262C37.2267 54.7571 37.6644 54.8564 38.0952 54.9817C38.4981 55.0988 38.9349 55.1494 39.354 55.1692C39.431 55.1728 39.5279 55.1785 39.5961 55.2108" stroke="black" stroke-width="0.4" stroke-linecap="round"/>
<path d="M33.3813 43.4296C35.7116 45.1384 37.2661 47.7537 36.6447 50.55" stroke="black" stroke-width="0.4"/>
<path d="M31.9831 42.6528C29.3421 41.0993 22.1958 40.7886 19.7102 46.5366C16.6871 53.5275 22.5132 58.4349 25.7689 59.1203C28.7206 59.7416 34.4687 59.431 36.4883 53.5275" stroke="black" stroke-width="0.4"/>
<path d="M57.6016 49.4965C57.6647 49.4649 57.6829 49.3713 57.7006 49.3104C57.7737 49.0583 57.8402 48.8055 57.9224 48.5559C58.1273 47.9332 58.411 47.3327 58.7422 46.7676C59.2171 45.9576 59.5755 45.0976 60.0235 44.2764C60.0571 44.2148 60.0821 44.1643 60.1324 44.114" stroke="black" stroke-width="0.4" stroke-linecap="round"/>
<path d="M57.9937 49.8887C58.1334 49.874 58.2966 49.7928 58.4313 49.7541C59.0678 49.5712 59.6785 49.3129 60.3067 49.1045C61.2145 48.8034 62.1598 48.5874 63.0415 48.2114C63.1104 48.182 63.2004 48.1372 63.2336 48.0708" stroke="black" stroke-width="0.4" stroke-linecap="round"/>
<path d="M57.9575 50.5658C58.0322 50.8397 58.4324 51.0097 58.6566 51.1282C59.497 51.5727 60.3489 52.0111 61.2092 52.4154C61.7667 52.6775 62.3738 52.9792 62.9717 53.1402C63.0885 53.1717 63.2061 53.2159 63.3044 53.2749" stroke="black" stroke-width="0.4" stroke-linecap="round"/>
<path d="M57.1738 51.2432C57.1738 53.1558 57.2034 55.0775 57.3877 56.9821" stroke="black" stroke-width="0.4" stroke-linecap="round"/>
<path d="M56.3894 50.5303C56.277 50.6926 55.9965 50.7694 55.825 50.857C55.3271 51.1113 54.81 51.3251 54.314 51.5838C53.5184 51.9988 52.6963 52.3159 51.8703 52.6611C51.4315 52.8445 50.9231 52.8752 50.4722 53.0255" stroke="black" stroke-width="0.4" stroke-linecap="round"/>
<path d="M55.6408 49.4251C55.5898 49.3742 55.5444 49.356 55.4745 49.334C55.2085 49.2505 54.9459 49.1435 54.6903 49.033C53.8858 48.6854 53.1583 48.1682 52.3852 47.7577C51.8069 47.4506 51.2769 47.064 50.7138 46.7319C50.5164 46.6155 50.244 46.5022 50.0088 46.5022" stroke="black" stroke-width="0.4" stroke-linecap="round"/>
<path d="M27.0506 49.3329C27.0264 49.0912 26.8805 48.8815 26.8477 48.6381C26.7956 48.2514 26.6745 47.8685 26.6018 47.4838C26.4427 46.6428 26.0877 45.8806 25.7926 45.0823C25.5492 44.4235 25.3282 43.7385 25.1086 43.08" stroke="black" stroke-width="0.4" stroke-linecap="round"/>
<path d="M26.4683 49.7991C25.8411 49.7991 25.3141 49.6916 24.7055 49.5207C23.4187 49.1595 22.0917 48.938 20.7979 48.6145C20.4558 48.529 20.0664 48.503 19.7493 48.3621" stroke="black" stroke-width="0.4" stroke-linecap="round"/>
<path d="M26.2739 51.2749C26.0958 51.3073 25.8837 51.4416 25.7216 51.5166C25.2132 51.7518 24.7052 51.9959 24.2198 52.2761C23.9354 52.4403 23.6688 52.6078 23.4215 52.8198C23.202 53.0079 22.9429 53.0843 22.7051 53.2362C22.2454 53.53 21.7599 53.787 21.2832 54.0518C21.2028 54.0965 21.0787 54.1489 20.9919 54.1489" stroke="black" stroke-width="0.4" stroke-linecap="round"/>
<path d="M27.0508 51.3527C27.0508 51.7841 26.9799 52.219 26.9516 52.6494C26.8725 53.8502 26.8299 55.0521 26.7962 56.2549C26.7945 56.3184 26.8449 56.8888 26.7595 57.0425C26.7145 57.1235 26.6701 57.3843 26.6625 57.4805C26.6487 57.653 26.5858 57.8438 26.5481 58.0134C26.5261 58.1125 26.4683 58.2507 26.4683 58.3435" stroke="black" stroke-width="0.4" stroke-linecap="round"/>
<path d="M27.9438 51.5469C27.9835 51.5518 27.988 51.579 28.0086 51.6116C28.1338 51.8103 28.2899 51.9772 28.4466 52.151C28.8422 52.5899 29.1217 53.1251 29.5146 53.5751C30.2603 54.429 30.8976 55.3514 31.5903 56.242C31.7662 56.4682 31.8996 56.7037 32.0607 56.9454" stroke="black" stroke-width="0.4" stroke-linecap="round"/>
<path d="M28.449 49.799C28.8485 49.7191 29.2209 49.4905 29.6228 49.3956C30.1126 49.2798 30.5608 49.09 31.0123 48.8669C31.2917 48.7289 31.5769 48.606 31.8581 48.4721C32.5204 48.1567 33.1384 47.7975 33.7698 47.4213C34.1849 47.1739 34.6208 47.0309 35.0126 46.7697" stroke="black" stroke-width="0.4" stroke-linecap="round"/>
<path d="M22.616 34.1213C22.4569 34.1213 22.4009 34.248 22.4009 34.3967C22.4009 34.4658 22.459 34.5048 22.5131 34.5349C22.555 34.5581 22.5977 34.5856 22.6378 34.6138C22.7296 34.6785 22.6626 34.6319 22.6383 34.578C22.5959 34.4837 22.5879 34.3945 22.5879 34.2897" stroke="black" stroke-width="0.4" stroke-linecap="round"/>
<path d="M23.9722 35.8138C24.0454 35.8212 24.0996 35.9323 24.1426 35.9801C24.1979 36.0416 24.2269 36.1104 24.2527 36.1879" stroke="black" stroke-width="0.4" stroke-linecap="round"/>
<path d="M24.3181 36.1224C24.4483 36.1224 24.4569 36.3237 24.4864 36.4123" stroke="black" stroke-width="0.4" stroke-linecap="round"/>
<path d="M61.8533 29.6722C61.8533 29.6971 61.8541 29.7222 61.8533 29.747C61.8529 29.7586 61.8325 29.8154 61.8401 29.8204C61.8707 29.8409 61.9607 29.7798 61.9897 29.766" stroke="black" stroke-width="0.4" stroke-linecap="round"/>
<path d="M62.42 29.741C62.3722 29.7549 62.2697 29.8398 62.2608 29.8935C62.2605 29.8951 62.264 29.894 62.2655 29.8935C62.2957 29.8835 62.3257 29.8772 62.357 29.8706C62.5273 29.8348 62.6968 29.798 62.8661 29.7581" stroke="black" stroke-width="0.4" stroke-linecap="round"/>
<path d="M63.2608 29.9041C63.2787 29.9533 63.278 29.9995 63.278 30.0513C63.278 30.0808 63.2156 30.1085 63.2513 30.0966C63.4758 30.0218 63.7272 29.9727 63.9644 29.9727" stroke="black" stroke-width="0.4" stroke-linecap="round"/>
<path d="M63.947 30.1443C63.9243 30.1624 63.9178 30.2155 63.9088 30.2415C63.8907 30.2942 63.8794 30.3488 63.8607 30.4012C63.846 30.4423 63.8276 30.4822 63.8116 30.5228C63.8069 30.5345 63.7726 30.5793 63.7782 30.5895C63.7867 30.605 63.813 30.5977 63.8306 30.5971C63.9216 30.5944 64.0125 30.5834 64.1028 30.5733C64.2465 30.5573 64.3877 30.5456 64.5323 30.548C64.6036 30.5492 64.6737 30.5561 64.7449 30.5561" stroke="black" stroke-width="0.4" stroke-linecap="round"/>
<path d="M61.3044 29.6637C61.3056 29.6776 61.3122 29.7396 61.3235 29.7476C61.3321 29.7536 61.3751 29.7079 61.3783 29.7056C61.4288 29.6703 61.4864 29.6546 61.5447 29.6379" stroke="black" stroke-width="0.4" stroke-linecap="round"/>
<path d="M55.2263 35.5729C55.2841 35.5729 55.3388 35.5529 55.3959 35.5529C55.5268 35.5529 55.6814 35.5873 55.8087 35.6176C55.8633 35.6305 55.9708 35.6335 56.014 35.6689C56.0352 35.6863 56.0952 35.7226 56.12 35.7336C56.2014 35.7698 56.2815 35.8259 56.3554 35.8742C56.4338 35.9254 56.5254 35.9838 56.5673 36.0705C56.5906 36.1185 56.6239 36.1851 56.6622 36.2234C56.7894 36.3506 56.8043 36.5603 56.8128 36.7377C56.8171 36.8283 56.8309 36.8964 56.8139 36.9898C56.7977 37.0787 56.7613 37.1532 56.7325 37.2397" stroke="black" stroke-width="0.4" stroke-linecap="round"/>
<path d="M55.7891 31.5164C55.7084 31.5211 55.6374 31.6461 55.5726 31.6926C55.459 31.7743 55.3634 31.855 55.2591 31.947C55.1964 32.0024 55.12 32.0291 55.0539 32.0809C54.8678 32.2265 54.6843 32.3713 54.515 32.5383C54.436 32.6162 54.3492 32.6994 54.3242 32.8116C54.3104 32.8737 54.2486 32.9681 54.303 33.0225" stroke="black" stroke-width="0.4" stroke-linecap="round"/>
<path d="M57.1549 50.3192C57.1266 50.32 57.087 50.33 57.0733 50.3571C57.0508 50.4017 57.0274 50.4644 57.0461 50.5138C57.0503 50.5249 57.0524 50.5365 57.0569 50.5474C57.0687 50.5766 57.1008 50.5971 57.1244 50.6152C57.1686 50.6493 57.2184 50.645 57.2708 50.6325C57.3132 50.6224 57.3451 50.6085 57.3813 50.5869C57.4045 50.5731 57.4381 50.5642 57.4549 50.5422C57.4777 50.5122 57.4763 50.4851 57.4693 50.4502C57.462 50.4137 57.4443 50.3667 57.4146 50.3437C57.3693 50.3087 57.3243 50.294 57.2728 50.2769" stroke="black" stroke-width="0.4" stroke-linecap="round"/>
<path d="M57.0691 34.8373C57.1241 34.8862 57.2165 34.8674 57.2782 34.9229C57.3163 34.9572 57.3862 34.9894 57.4319 35.0136C57.5674 35.0854 57.7115 35.3358 57.7267 35.4722C57.7348 35.5452 57.7989 35.7051 57.8451 35.7619C57.9101 35.842 57.9703 35.9567 57.9761 36.0618C57.9789 36.1122 57.9744 36.1743 58.0215 36.1978" stroke="black" stroke-width="0.4" stroke-linecap="round"/>
<path d="M65.4572 26.1588C65.4572 25.5621 65.3549 24.9742 65.3492 24.3774C65.3431 23.7473 65.3482 23.1171 65.3482 22.4869" stroke="black" stroke-width="0.4" stroke-linecap="round"/>
<path d="M65.9841 26.4313C65.9921 26.2396 66.063 26.052 66.1215 25.8718C66.3107 25.2884 66.4732 24.7086 66.584 24.1045C66.6895 23.5296 66.7278 22.939 66.8466 22.3676C66.8831 22.1916 66.9575 22.0704 67.0748 21.9414" stroke="black" stroke-width="0.4" stroke-linecap="round"/>
<path d="M66.4751 26.5768C66.6304 26.4215 66.7482 26.2156 66.87 26.0355C67.0715 25.7373 67.2555 25.4308 67.4345 25.1185C67.7865 24.5042 68.1576 23.9071 68.5292 23.3048" stroke="black" stroke-width="0.4" stroke-linecap="round"/>
</svg>
